Coordinates
version=1
nRows=15
nColumns=34
inDegrees=yes

Units are S.I. units (second, meters, Newtons, ...)
If the header above contains a line with 'inDegrees', this indicates whether rotational values are in degrees (yes) or radians (no).

endheader
time	pelvis_tilt	pelvis_list	pelvis_rotation	pelvis_tx	pelvis_ty	pelvis_tz	hip_flexion_r	hip_adduction_r	hip_rotation_r	knee_angle_r	ankle_angle_r	subtalar_angle_r	mtp_angle_r	hip_flexion_l	hip_adduction_l	hip_rotation_l	knee_angle_l	ankle_angle_l	subtalar_angle_l	mtp_angle_l	lumbar_extension	lumbar_bending	lumbar_rotation	arm_flex_r	arm_add_r	arm_rot_r	elbow_flex_r	pro_sup_r	arm_flex_l	arm_add_l	arm_rot_l	elbow_flex_l	pro_sup_l
      2.46666670	      5.47345483	      5.62521285	     -4.12947038	      0.48961386	      0.64059314	     -0.03017442	     47.15654852	      9.26926027	     -0.94270224	     98.66368257	     49.91633190	    -18.35115467	      0.00000000	     66.33703414	     -8.05902731	     -7.65706197	     32.58562936	      6.28563303	      0.20255923	      0.00000000	    -41.87073477	     -1.15021271	     -0.66689026	     81.96914257	     10.35425328	     79.83922494	    119.51844530	     99.19694474	     58.81891052	      7.53555100	     60.59385546	    122.26753002	     89.03495058
      2.48333330	      5.28823931	      5.57094445	     -4.36255215	      0.48890050	      0.64185504	     -0.02992497	     47.79330073	      9.35678029	     -0.83594106	     98.66726626	     49.50448022	    -17.98499335	      0.00000000	     66.18611623	     -8.02578329	     -7.47264365	     32.39836584	      6.03491857	      0.33038225	      0.00000000	    -42.16918263	     -1.20196824	     -0.75080855	     82.29209860	     10.21829118	     79.73216062	    119.53350402	     99.09234400	     59.25734909	      7.34719879	     60.27131990	    122.14463788	     89.05239616
      2.50000000	      5.17261895	      5.60746393	     -4.66233478	      0.48714576	      0.64138507	     -0.02948530	     48.44054682	      9.51304776	     -0.59708611	     98.67566104	     49.38620401	    -18.01126324	      0.00000000	     65.94246894	     -8.11250258	     -7.52788320	     32.44569753	      5.82657750	      0.21755630	      0.00000000	    -42.41492545	     -1.35674826	     -0.89564119	     82.73046496	     10.25140323	     79.65272099	    119.50596710	     98.90974999	     59.62884952	      7.33068899	     60.03017936	    122.15193106	     89.07789608
      2.51666670	      5.09598700	      5.58166826	     -5.04944983	      0.49037012	      0.64263393	     -0.03087856	     49.09242213	      9.68262417	     -0.61033348	     99.04689572	     49.18160422	    -18.18636887	      0.00000000	     65.51141722	     -8.20229513	     -7.25596038	     32.57200723	      6.15348833	      0.01381818	      0.00000000	    -42.59499458	     -1.45100259	     -1.06185189	     82.79467260	     10.36901947	     79.74785805	    119.55622134	     98.80381723	     59.42754794	      7.27443646	     60.13811066	    122.26650498	     89.09693086
      2.53333330	      4.84027299	      5.59686086	     -5.25452347	      0.49097874	      0.64142410	     -0.03150907	     49.30296398	      9.81509668	     -0.73436130	     99.46987188	     47.48493178	    -19.40747218	      0.00000000	     65.65325518	     -8.23518081	     -6.98282226	     33.29510171	      6.56292720	     -0.29183494	      0.00000000	    -42.31933246	     -1.42566842	     -1.47846945	     82.80966994	     10.73802996	     79.80107368	    119.55101131	     98.31390408	     59.22455756	      6.92049023	     60.25293910	    122.88757429	     89.16296638
      2.55000000	      4.78793448	      5.67041318	     -5.15218147	      0.49176384	      0.64511346	     -0.03131322	     48.63829627	      9.67126482	     -0.38781217	     98.78652079	     46.97522155	    -19.14515352	      0.00000000	     65.26733866	     -8.01140750	     -6.82772930	     33.73977721	      6.95931882	     -0.40765925	      0.00000000	    -42.05971464	     -1.49782013	     -1.58818204	     82.56450314	     10.51199453	     79.84032823	    119.49132598	     98.22964076	     58.74978120	      6.86557222	     60.26165525	    122.94100506	     89.17412233
      2.56666670	      4.74940603	      5.75668097	     -5.00130690	      0.49450951	      0.64767600	     -0.03250462	     47.89075614	      9.43192936	     -0.27851980	     98.31549821	     46.61723869	    -19.34105151	      0.00000000	     64.78928542	     -7.66775260	     -6.74649667	     34.05108756	      7.43550447	     -0.33103195	      0.00000000	    -41.79432577	     -1.51320925	     -1.84510099	     82.00552004	     10.39892343	     79.98559976	    119.56133157	     98.08901549	     57.89944815	      7.12995958	     60.63104639	    122.96957966	     89.21296129
      2.58333330	      4.62565438	      5.96536850	     -4.76998201	      0.49595651	      0.64981411	     -0.03170792	     47.79722353	      9.25436385	      0.17046275	     97.70987558	     47.26015482	    -19.55207579	      0.00000000	     64.35002683	     -7.33000582	     -7.11217879	     34.15484447	      8.01797753	     -0.31321171	      0.00000000	    -41.36493808	     -1.64455087	     -2.10928889	     81.39968754	     10.61962427	     80.37896548	    119.81432844	     97.96143596	     57.68851507	      7.38250733	     61.03181946	    122.98468528	     89.26184239
      2.60000000	      4.45666304	      6.22773503	     -4.59057531	      0.49662204	      0.65353835	     -0.03128231	     47.60411846	      8.99294265	      0.46284741	     97.05088274	     48.17379082	    -18.91604454	      0.00000000	     63.92418783	     -7.05761890	     -7.74532863	     33.83807693	      8.22382463	     -0.08079378	      0.00000000	    -40.72999509	     -2.03807203	     -2.40685581	     80.77879460	     10.52195675	     80.76889128	    120.09041250	     97.71063516	     57.54530341	      7.50475137	     61.79573163	    122.83412947	     89.35268092
      2.61666670	      4.45836527	      6.32601756	     -4.70169079	      0.48994931	      0.65457851	     -0.03181161	     47.73431501	      9.00619682	      0.58958749	     96.75429278	     48.06257068	    -18.83267024	      0.00000000	     63.70264330	     -7.00089937	     -7.95131195	     33.56735739	      7.95940781	      0.02681993	      0.00000000	    -40.35923568	     -2.13921662	     -2.17520667	     81.01077793	     10.58592872	     80.54079020	    120.15296780	     97.59078391	     58.00833563	      7.79811061	     61.76532710	    122.81565476	     89.36344621
      2.63333330	      4.46463928	      6.40923129	     -4.90712141	      0.49196768	      0.65815359	     -0.03227150	     47.68599222	      8.97902307	      0.57212520	     96.40607240	     47.58359997	    -18.87726829	      0.00000000	     63.28290970	     -6.99117616	     -7.95362601	     33.34740067	      7.76696941	     -0.23578420	      0.00000000	    -39.94315887	     -2.41964090	     -2.10641129	     81.05668540	     10.52927684	     80.36673708	    120.31384076	     97.43683805	     58.58040565	      7.93675278	     61.57439452	    122.61883473	     89.33763724
      2.65000000	      4.50422470	      6.42001910	     -5.08114230	      0.49130024	      0.65979655	     -0.03265862	     47.50782352	      8.92263185	      0.53530215	     96.18402120	     46.86404723	    -18.75707276	      0.00000000	     63.21845088	     -7.08716448	     -7.97192501	     33.86390716	      7.75919056	     -0.38649218	      0.00000000	    -39.39557820	     -2.61064183	     -2.22721400	     81.30627095	     10.58692918	     80.15469028	    120.42897682	     97.36883779	     59.03743001	      7.98307466	     61.24852123	    122.49560021	     89.29648611
      2.66666670	      4.39830385	      6.39772363	     -5.36721606	      0.49122828	      0.66572330	     -0.03178185	     47.28706100	      9.18022611	      0.85004872	     95.37786023	     45.31389342	    -20.03989847	      0.00000000	     63.06386845	     -7.20937155	     -7.83701104	     34.14495080	      7.61496934	     -0.91038928	      0.00000000	    -39.04139322	     -2.99203944	     -2.33897284	     81.73271112	     10.79417230	     79.58362450	    120.87556815	     97.13031454	     59.30056458	      7.86286179	     60.08718801	    122.20094695	     89.05010853
      2.68333330	      4.35685505	      6.37563698	     -5.40883545	      0.49511447	      0.66956444	     -0.03338818	     46.47591897	      9.03795141	      0.95597055	     94.37509321	     44.50902198	    -20.06473990	      0.00000000	     62.75796588	     -7.19721082	     -7.94706875	     34.30879095	      7.73237744	     -0.79252954	      0.00000000	    -38.34071193	     -3.15470195	     -2.64609377	     81.46253860	     10.84300269	     79.65774190	    121.09940004	     97.01342393	     58.90064791	      7.36280095	     58.80225214	    122.04682156	     88.78295658
      2.70000000	      4.21373009	      6.29906862	     -5.35087631	      0.49486928	      0.67624137	     -0.03266978	     45.72965697	      9.05197317	      1.21782948	     92.87063369	     44.32227327	    -20.16139962	      0.00000000	     62.57871145	     -7.12004173	     -8.03851026	     34.42297820	      7.65016198	     -0.49796769	      0.00000000	    -37.65305000	     -3.24899387	     -2.72908841	     81.38146959	     10.85766099	     79.83888576	    121.31978192	     96.97986608	     58.18301891	      7.22154437	     58.63487460	    122.05934945	     88.67567146
